<?xml version="1.0" encoding="utf-8"?>
<svg xmlns="http://www.w3.org/2000/svg" viewBox="0 0 512 512">
  <defs>
    <linearGradient id="a" x1="150" x2="234" y1="119.2" y2="264.8" gradientUnits="userSpaceOnUse">
      <stop offset="0" stop-color="#fbbf24"/>
      <stop offset="0.5" stop-color="#fbbf24"/>
      <stop offset="1" stop-color="#f59e0b"/>
    </linearGradient>
    <clipPath id="b">
      <path fill="none" d="M64 64h384v192H328a72 72 0 00-72 72v120H64Z"/>
    </clipPath>
    <symbol id="c" viewBox="0 0 384 384">
      <circle cx="192" cy="192" r="84" fill="url(#a)" stroke="#f8af18" stroke-miterlimit="10" stroke-width="6"/>
      <path fill="none" stroke="#fbbf24" stroke-linecap="round" stroke-miterlimit="10" stroke-width="24" d="M192 61.7V12m0 360v-49.7m92.2-222.5 35-35M64.8 319.2l35.1-35.1m0-184.4-35-35m254.5 254.5-35.1-35.1M61.7 192H12m360 0h-49.7">
        <animateTransform additive="sum" attributeName="transform" dur="6s" repeatCount="indefinite" type="rotate" values="0 192 192; 45 192 192"/>
      </path>
    </symbol>
  </defs>
  <g clip-path="url(#b)">
    <use width="384" height="384" transform="matrix(1, 0, 0, 1, 64, 64)" href="#c"/>
    <path fill="none" stroke="#f8af18" stroke-miterlimit="10" stroke-width="6" d="M254 338v-10a74 74 0 0174-74h10"/>
  </g>
  <rect width="144" height="144" x="280" y="280" rx="48" style="fill: rgb(145, 200, 0);"/>
  <path fill="#fff" d="M 313.197 386.127 L 294.197 386.127 L 294.197 341.127 L 300.452 340.943 L 300.086 341.775 L 309.832 322.625 C 315.032 322.625 288.797 327.393 291.797 325.127 C 294.664 323.06 296.531 319.66 297.397 314.927 L 297.597 314.127 L 313.197 314.127 L 313.197 386.127 Z M 377.097 376.327 C 371.631 382.86 364.331 386.127 355.197 386.127 C 346.064 386.127 338.764 382.86 333.297 376.327 C 327.897 369.86 325.197 361.06 325.197 349.927 C 325.197 338.927 327.897 330.227 333.297 323.827 C 338.631 317.36 345.931 314.127 355.197 314.127 C 364.331 314.127 371.631 317.36 377.097 323.827 C 382.564 330.293 385.231 338.993 385.097 349.927 C 385.097 360.993 382.431 369.793 377.097 376.327 Z M 355.197 372.127 C 363.597 372.127 367.797 364.793 367.797 350.127 C 367.797 335.46 363.597 328.127 355.197 328.127 C 346.731 328.127 342.497 335.46 342.497 350.127 C 342.497 364.793 346.731 372.127 355.197 372.127 Z"/>
  <rect x="288.327" y="311.615" width="35.424" height="82.768" style="stroke: rgb(0, 0, 0); stroke-opacity: 0; fill: rgb(145, 200, 0);"/>
</svg>