<svg width="20" height="20" viewBox="0 0 20 20" fill="none" xmlns="http://www.w3.org/2000/svg">
<path fill-rule="evenodd" clip-rule="evenodd" d="M20 10C20 15.5228 15.5228 20 10 20C4.47715 20 0 15.5228 0 10C0 4.47715 4.47715 0 10 0C15.5228 0 20 4.47715 20 10ZM6.52979 7.75C7.35821 7.75 8.02979 7.07843 8.02979 6.25C8.02979 5.42157 7.35821 4.75 6.52979 4.75C5.70136 4.75 5.02979 5.42157 5.02979 6.25C5.02979 7.07843 5.70136 7.75 6.52979 7.75ZM15.0298 6.25C15.0298 7.07843 14.3582 7.75 13.5298 7.75C12.7014 7.75 12.0298 7.07843 12.0298 6.25C12.0298 5.42157 12.7014 4.75 13.5298 4.75C14.3582 4.75 15.0298 5.42157 15.0298 6.25ZM13.6298 11.3H6.42978C5.92978 11.3 5.52979 11.7 5.52979 12.2C5.52979 14.69 7.53979 16.7 10.0298 16.7C12.5198 16.7 14.5298 14.69 14.5298 12.2C14.5298 11.7 14.1298 11.3 13.6298 11.3Z" fill="#111827"/>
</svg>
