<svg width="48" height="48" viewBox="0 0 48 48" fill="none" xmlns="http://www.w3.org/2000/svg">
<path d="M22.8499 37.47C22.5499 37.47 22.2999 37.72 22.2999 38.02C22.2999 38.32 22.5499 38.57 22.8499 38.57H25.1499C25.4499 38.57 25.6999 38.32 25.6999 38.02C25.6999 37.72 25.4499 37.47 25.1499 37.47H22.8499Z" fill="#974A20"/>
<path d="M22.5299 30.98C23.0599 31.13 23.5499 31.21 24.0299 31.21C24.5099 31.21 24.9999 31.14 25.5199 30.98C25.8099 30.9 25.9799 30.59 25.8999 30.3C25.8599 30.16 25.7599 30.04 25.6299 29.97C25.4999 29.9 25.3499 29.88 25.2099 29.93C24.3499 30.18 23.6899 30.18 22.8299 29.93C22.6899 29.89 22.5399 29.9 22.4099 29.97C22.2799 30.04 22.1799 30.16 22.1399 30.3C22.0999 30.44 22.1099 30.59 22.1899 30.72C22.2599 30.85 22.3799 30.94 22.5199 30.98H22.5299Z" fill="#974A20"/>
<path d="M27.9399 37.34C28.1099 37.34 28.2699 37.26 28.3699 37.13C28.4599 37.01 28.4999 36.87 28.4899 36.72C28.4699 36.57 28.3999 36.44 28.2899 36.35C27.1199 35.4 25.7299 34.92 24.1499 34.92C22.5699 34.92 21.1899 35.4 20.0099 36.35C19.8899 36.44 19.8199 36.57 19.8099 36.72C19.7899 36.87 19.8399 37.01 19.9299 37.13C20.0199 37.25 20.1599 37.32 20.2999 37.33C20.4399 37.35 20.5899 37.3 20.6999 37.21C21.6699 36.43 22.8299 36.03 24.1399 36.03C25.4499 36.03 26.6099 36.43 27.5799 37.21C27.6799 37.29 27.7999 37.33 27.9199 37.33L27.9399 37.34Z" fill="#974A20"/>
<path d="M32.0399 22.81C32.1899 22.79 32.3199 22.72 32.3999 22.6C32.4899 22.48 32.5299 22.34 32.5099 22.19C32.4699 21.9 32.1899 21.68 31.8899 21.72C30.3499 21.92 28.7199 21.39 27.6299 20.32C27.4099 20.11 27.0599 20.11 26.8499 20.33C26.7499 20.44 26.6899 20.58 26.6899 20.72C26.6899 20.87 26.7499 21.01 26.8599 21.11C27.9799 22.21 29.6199 22.86 31.2399 22.86C31.5099 22.86 31.7699 22.84 32.0299 22.81H32.0399Z" fill="#974A20"/>
<path d="M20.74 20.16C20.6 20.16 20.46 20.22 20.35 20.32C19.26 21.39 17.63 21.92 16.09 21.72C15.95 21.7 15.8 21.74 15.68 21.83C15.56 21.92 15.48 22.05 15.46 22.2C15.42 22.5 15.63 22.78 15.94 22.82C16.2 22.86 16.47 22.87 16.73 22.87C18.35 22.87 19.99 22.22 21.12 21.12C21.34 20.91 21.34 20.56 21.12 20.34C21.02 20.23 20.88 20.18 20.72 20.17L20.74 20.16Z" fill="#974A20"/>
<path d="M31.2 24.64C31.2 24.03 30.43 23.53 29.49 23.53C28.55 23.53 27.78 24.03 27.78 24.64C27.78 25.25 28.53 25.75 29.49 25.75C30.45 25.75 31.2 25.25 31.2 24.64Z" fill="#974A20"/>
<path d="M18.49 25.75C19.43 25.75 20.2 25.25 20.2 24.64C20.2 24.03 19.43 23.53 18.49 23.53C17.55 23.53 16.78 24.03 16.78 24.64C16.78 25.25 17.53 25.75 18.49 25.75Z" fill="#974A20"/>
<path d="M40.24 24.37C40 24.2 39.72 24.11 39.43 24.09C39.78 22.35 40.03 20.61 40.16 18.92C40.55 14.08 39.29 9.94002 36.51 6.94002C33.56 3.75002 28.99 1.91002 23.99 1.91002C22.76 1.91002 21.65 2.03002 21.01 2.14002C20.74 2.00002 20.53 1.87002 20.32 1.74002L20.27 1.71002C20.11 1.60002 19.88 1.64002 19.77 1.81002L19.44 2.30002C19.38 2.38002 19.36 2.48002 19.38 2.58002C19.4 2.68002 19.46 2.76002 19.54 2.82002L19.59 2.85002C20.46 3.42002 21.42 3.85002 22.21 4.03002C23.03 4.21002 23.44 4.61002 23.6 4.82002L23.63 4.86002C23.74 5.00002 23.92 5.04002 24.08 4.96002L24.61 4.68002C24.7 4.63002 24.77 4.54002 24.79 4.44002C24.82 4.34002 24.79 4.23002 24.73 4.14002L24.69 4.08002C24.57 3.91002 24.25 3.53002 23.69 3.20002C23.8 3.20002 23.9 3.20002 23.98 3.20002C28.63 3.20002 32.85 4.88002 35.55 7.81002C38.11 10.58 39.22 14.28 38.86 18.81C38.7 20.77 38.39 22.81 37.92 24.88L37.87 25.15C37.85 25.28 37.88 25.4 37.96 25.5C38.04 25.6 38.16 25.66 38.29 25.66H38.65C38.74 25.66 38.83 25.63 38.91 25.57L38.97 25.53C39.17 25.38 39.39 25.35 39.48 25.42C39.71 25.58 39.76 26.27 39.43 27.29C39.43 27.31 38.69 29.59 38.45 30.29C38.14 31.19 37.62 31.85 37.03 32.1C37.05 32.05 37.07 32 37.09 31.95C37.13 31.85 37.13 31.73 37.09 31.63C37.05 31.53 36.96 31.44 36.85 31.4L36.44 31.24C36.22 31.16 35.98 31.27 35.89 31.48C34.13 35.91 31.92 39.26 28.95 42.02C27.37 43.49 25.82 43.79 23.99 43.79C22.16 43.79 20.61 43.49 19.03 42.02C16.06 39.26 13.85 35.91 12.09 31.48C12 31.26 11.76 31.16 11.54 31.24L11.13 31.4C11.03 31.44 10.94 31.52 10.89 31.63C10.85 31.73 10.84 31.85 10.89 31.96C10.91 32.01 10.93 32.06 10.95 32.1C10.35 31.85 9.83997 31.21 9.52997 30.29C9.28997 29.59 8.55997 27.31 8.54997 27.29C8.21997 26.28 8.26997 25.59 8.49997 25.43C8.60997 25.35 8.82997 25.4 9.03997 25.56L9.10997 25.6C9.18997 25.65 9.27997 25.67 9.36997 25.66L9.56997 25.64C9.95997 25.6 9.98997 25.59 10.01 25.59C10.41 25.49 10.8 25.15 11.07 24.66C11.49 23.91 11.79 22.84 12.13 21.6C12.81 19.15 13.65 16.1 15.81 14.74C18.24 13.21 20.35 13.48 22.8 13.79C25.17 14.09 27.84 14.44 31.32 13.25C31.62 15.16 32.84 17.64 35.41 18.98C35.68 19.12 36.01 19.01 36.15 18.74C36.22 18.61 36.23 18.46 36.19 18.32C36.15 18.18 36.05 18.07 35.92 18C33.59 16.78 32.56 14.52 32.38 12.82C32.36 12.65 32.27 12.5 32.13 12.41L31.74 12.16C31.59 12.07 31.42 12.05 31.26 12.11C27.88 13.34 25.25 13 22.93 12.69C20.39 12.37 17.99 12.06 15.22 13.8C12.7 15.39 11.79 18.67 11.06 21.31C10.74 22.47 10.46 23.48 10.11 24.11C10.06 24.21 9.99997 24.28 9.94997 24.34C9.54997 22.46 9.26997 20.6 9.12997 18.81C8.39997 9.64002 13.87 5.92002 17.26 4.51002C17.67 4.68002 18.05 4.81002 18.39 4.89002C19.21 5.08002 19.62 5.47002 19.78 5.68002L19.81 5.72002C19.91 5.86002 20.1 5.90002 20.27 5.82002L20.8 5.54002C20.89 5.49002 20.96 5.41002 20.98 5.30002C21.01 5.20002 20.98 5.09002 20.92 5.00002L20.88 4.94002C20.66 4.63002 20 3.89002 18.67 3.59002C18.03 3.45002 17.24 3.09002 16.49 2.60002L16.44 2.57002C16.28 2.46002 16.05 2.50002 15.94 2.67002L15.61 3.16002C15.55 3.24002 15.53 3.34002 15.55 3.44002C15.57 3.54002 15.63 3.62002 15.71 3.68002L15.76 3.71002C15.76 3.71002 15.8 3.74002 15.83 3.75002C10.2 6.51002 7.28997 12.03 7.83997 18.92C7.96997 20.6 8.21997 22.33 8.57997 24.09C8.28997 24.1 8.00997 24.2 7.76997 24.37C7.30997 24.7 6.63997 25.56 7.33997 27.69C7.33997 27.71 8.07997 29.99 8.31997 30.7C9.01997 32.77 10.43 33.5 11.52 33.5C11.54 33.5 11.55 33.5 11.57 33.5C13.3 37.38 15.4 40.39 18.17 42.96C20.17 44.82 22.16 45.08 24.01 45.08C25.86 45.08 27.85 44.82 29.85 42.96C32.62 40.39 34.72 37.38 36.45 33.5C36.47 33.5 36.48 33.5 36.5 33.5C37.59 33.5 39 32.76 39.7 30.7C39.96 29.93 40.68 27.71 40.68 27.69C41.38 25.56 40.71 24.69 40.25 24.37H40.24Z" fill="#974A20"/>
</svg>
