<svg width="48" height="48" viewBox="0 0 48 48" fill="none" xmlns="http://www.w3.org/2000/svg">
<path d="M22.53 30.98C23.06 31.13 23.55 31.21 24.03 31.21C24.51 31.21 25 31.14 25.52 30.98C25.81 30.9 25.98 30.59 25.9 30.3C25.86 30.16 25.76 30.04 25.63 29.97C25.5 29.9 25.36 29.88 25.21 29.93C24.35 30.18 23.69 30.18 22.83 29.93C22.69 29.89 22.54 29.9 22.41 29.97C22.28 30.04 22.18 30.16 22.14 30.3C22.1 30.44 22.12 30.59 22.19 30.72C22.26 30.85 22.38 30.94 22.52 30.98H22.53Z" fill="#8C6C1D"/>
<path d="M40.24 24.37C40 24.2 39.72 24.11 39.43 24.09C39.78 22.35 40.03 20.61 40.16 18.92C40.55 14.08 39.29 9.93999 36.51 6.94C33.56 3.75 28.99 1.91 23.99 1.91C22.76 1.91 21.65 2.03 21.01 2.14C20.74 2 20.53 1.87 20.32 1.74L20.27 1.71C20.11 1.6 19.88 1.65 19.77 1.81L19.44 2.3C19.38 2.38 19.36 2.48 19.38 2.58C19.4 2.68 19.46 2.76 19.54 2.82L19.59 2.85C20.46 3.42 21.42 3.85 22.21 4.03C23.03 4.21 23.44 4.61 23.6 4.82L23.63 4.86C23.74 5 23.92 5.04 24.08 4.96L24.61 4.68C24.7 4.63 24.77 4.54 24.79 4.44C24.82 4.34 24.79 4.23 24.73 4.14L24.69 4.08C24.57 3.91 24.25 3.53 23.69 3.2C23.8 3.2 23.9 3.2 23.98 3.2C28.63 3.2 32.85 4.88 35.55 7.81C38.11 10.58 39.22 14.28 38.86 18.81C38.7 20.77 38.39 22.81 37.92 24.88L37.87 25.15C37.85 25.28 37.88 25.4 37.96 25.5C38.04 25.6 38.16 25.66 38.29 25.66H38.65C38.74 25.66 38.83 25.63 38.91 25.57L38.97 25.53C39.17 25.38 39.39 25.36 39.48 25.42C39.71 25.58 39.76 26.27 39.43 27.29L39.04 28.49C38.86 29.04 38.68 29.61 38.45 30.29C38.14 31.19 37.62 31.85 37.03 32.1C37.05 32.05 37.07 32 37.09 31.95C37.13 31.85 37.13 31.73 37.09 31.63C37.05 31.53 36.96 31.44 36.85 31.4L36.44 31.24C36.22 31.16 35.98 31.27 35.89 31.48C34.13 35.91 31.92 39.26 28.95 42.02C27.37 43.49 25.82 43.79 23.99 43.79C22.16 43.79 20.61 43.49 19.03 42.02C16.06 39.26 13.85 35.91 12.09 31.48C12 31.26 11.76 31.15 11.54 31.24L11.13 31.4C11.03 31.44 10.94 31.52 10.9 31.63C10.86 31.73 10.85 31.85 10.9 31.96C10.92 32.01 10.94 32.06 10.96 32.1C10.36 31.85 9.84996 31.21 9.53996 30.29C9.30996 29.61 9.11996 29.03 8.93996 28.47L8.55996 27.3C8.22996 26.29 8.27996 25.6 8.50996 25.44C8.61996 25.36 8.83996 25.42 9.04996 25.57L9.11996 25.61C9.19996 25.66 9.27996 25.68 9.36996 25.67C9.50996 25.66 9.94996 25.61 9.99996 25.6C10.4 25.5 10.78 25.16 11.06 24.67C11.48 23.92 11.78 22.85 12.12 21.61C12.8 19.16 13.64 16.11 15.8 14.75C18.23 13.21 20.35 13.49 22.79 13.8C25.15 14.1 27.83 14.45 31.31 13.26C31.61 15.17 32.83 17.65 35.4 18.99C35.67 19.13 36 19.02 36.14 18.75C36.21 18.62 36.22 18.47 36.18 18.33C36.14 18.19 36.04 18.08 35.91 18.01C33.58 16.79 32.55 14.53 32.37 12.83C32.35 12.66 32.26 12.51 32.12 12.42L31.73 12.17C31.58 12.08 31.41 12.06 31.25 12.12C27.87 13.34 25.24 13 22.92 12.7C20.38 12.38 17.98 12.07 15.21 13.81C12.69 15.4 11.78 18.68 11.05 21.32C10.73 22.48 10.45 23.49 10.1 24.12C10.05 24.22 9.98996 24.29 9.93996 24.35C9.53996 22.47 9.25996 20.61 9.11996 18.82C8.38996 9.65 13.86 5.93 17.25 4.52C17.66 4.69 18.04 4.82 18.38 4.9C19.2 5.09 19.61 5.48 19.77 5.69L19.8 5.73C19.9 5.87 20.09 5.91 20.26 5.83L20.79 5.55C20.88 5.5 20.95 5.42 20.97 5.31C21 5.21 20.97 5.1 20.91 5.01L20.87 4.95C20.65 4.64 19.99 3.9 18.66 3.6C18.02 3.46 17.23 3.1 16.48 2.61L16.43 2.58C16.27 2.47 16.04 2.51 15.93 2.68L15.6 3.17C15.54 3.25 15.52 3.35 15.54 3.45C15.56 3.55 15.62 3.63 15.7 3.69L15.75 3.72C15.75 3.72 15.79 3.75 15.82 3.76C10.19 6.52 7.27996 12.04 7.82996 18.93C7.95996 20.61 8.20996 22.34 8.56996 24.1C8.27996 24.11 7.99996 24.21 7.75996 24.38C7.29996 24.71 6.62996 25.57 7.32996 27.7L7.65996 28.73C7.87996 29.42 8.06996 30 8.30996 30.71C9.00996 32.78 10.42 33.51 11.51 33.51C11.53 33.51 11.54 33.51 11.56 33.51C13.29 37.39 15.39 40.4 18.16 42.97C20.16 44.83 22.15 45.09 24 45.09C25.85 45.09 27.84 44.83 29.84 42.97C32.61 40.4 34.71 37.39 36.44 33.51C36.46 33.51 36.47 33.51 36.49 33.51C37.58 33.51 38.99 32.77 39.69 30.71C39.95 29.93 40.17 29.28 40.34 28.73L40.67 27.71C41.37 25.58 40.7 24.71 40.24 24.39V24.37Z" fill="#8C6C1D"/>
<path d="M25.5899 38.58V38.36C25.6599 38.26 25.6999 38.15 25.6999 38.03C25.6999 37.91 25.6599 37.79 25.5899 37.7V37.48H22.4199V37.69C22.3399 37.79 22.2999 37.91 22.2999 38.03C22.2999 38.15 22.3399 38.27 22.4199 38.37V38.58H25.5899Z" fill="#8C6C1D"/>
<path d="M28.1999 35.91C28.1999 35.61 27.9499 35.36 27.6499 35.36H20.3599C20.0599 35.36 19.8099 35.61 19.8099 35.91C19.8099 36.21 20.0599 36.46 20.3599 36.46H27.6499C27.9499 36.46 28.1999 36.21 28.1999 35.91Z" fill="#8C6C1D"/>
<path d="M32.24 21.72C32.24 21.42 31.99 21.17 31.69 21.17H27.29C26.99 21.17 26.74 21.42 26.74 21.72C26.74 22.02 26.99 22.27 27.29 22.27H31.69C31.99 22.27 32.24 22.02 32.24 21.72Z" fill="#8C6C1D"/>
<path d="M31.1999 24.64C31.1999 24.03 30.4299 23.53 29.4899 23.53C28.5499 23.53 27.7799 24.03 27.7799 24.64C27.7799 25.25 28.5299 25.75 29.4899 25.75C30.4499 25.75 31.1999 25.25 31.1999 24.64Z" fill="#8C6C1D"/>
<path d="M21.24 21.72C21.24 21.42 20.99 21.17 20.69 21.17H16.29C15.99 21.17 15.74 21.42 15.74 21.72C15.74 22.02 15.99 22.27 16.29 22.27H20.69C20.99 22.27 21.24 22.02 21.24 21.72Z" fill="#8C6C1D"/>
<path d="M18.4899 25.75C19.4299 25.75 20.1999 25.25 20.1999 24.64C20.1999 24.03 19.4299 23.53 18.4899 23.53C17.5499 23.53 16.7799 24.03 16.7799 24.64C16.7799 25.25 17.5299 25.75 18.4899 25.75Z" fill="#8C6C1D"/>
</svg>
