<svg width="48" height="48" viewBox="0 0 48 48" fill="none" xmlns="http://www.w3.org/2000/svg">
<path d="M24.0299 34.21C20.7999 34.21 18.0599 35.9 17.8099 38.04C17.3799 41.1 17.3499 41.54 17.3499 41.6C17.3499 43.96 20.3499 45.89 24.0399 45.9C27.7299 45.9 30.7299 43.96 30.7299 41.6C30.7299 41.54 30.6999 41.1 30.2699 38.05C30.0099 35.9 27.2799 34.21 24.0399 34.2L24.0299 34.21Z" fill="url(#paint0_linear_76_1446)"/>
<path d="M34.1699 21.87C33.1499 18.7 29.0699 16.56 24.0199 16.56C18.9699 16.56 14.8899 18.7 13.8699 21.87C12.6699 25.6 15.2499 31.3 18.3499 35.33C19.6999 34.09 21.7999 33.34 23.9899 33.32H24.0399C26.2299 33.33 28.3399 34.08 29.6799 35.33C32.7799 31.3 35.3599 25.6 34.1599 21.87H34.1699ZM18.2799 27.13C17.2299 27.13 16.3799 25.97 16.3799 24.54C16.3799 23.11 17.2299 21.95 18.2799 21.95C19.3299 21.95 20.1799 23.11 20.1799 24.54C20.1799 25.97 19.3299 27.13 18.2799 27.13ZM29.6999 27.13C28.6499 27.13 27.7999 25.97 27.7999 24.54C27.7999 23.11 28.6499 21.95 29.6999 21.95C30.7499 21.95 31.5999 23.11 31.5999 24.54C31.5999 25.97 30.7499 27.13 29.6999 27.13Z" fill="url(#paint1_linear_76_1446)"/>
<path d="M24.07 45.32C27.42 45.32 30.15 43.6 30.15 41.48C30.15 39.36 27.42 37.64 24.07 37.64C20.72 37.64 17.99 39.36 17.99 41.48C17.99 43.6 20.72 45.32 24.07 45.32Z" fill="black" fill-opacity="0.25"/>
<path d="M29.7099 20.95C28.1199 20.95 26.8199 22.56 26.8199 24.53C26.8199 26.5 28.1199 28.11 29.7099 28.11C31.2999 28.11 32.5999 26.5 32.5999 24.53C32.5999 22.56 31.2999 20.95 29.7099 20.95ZM31.4999 24.53C31.4999 25.9 30.6999 27.01 29.7099 27.01C28.7199 27.01 27.9199 25.9 27.9199 24.53C27.9199 23.16 28.7199 22.05 29.7099 22.05C30.6999 22.05 31.4999 23.16 31.4999 24.53Z" fill="#573344"/>
<path d="M18.2899 20.95C16.6999 20.95 15.3999 22.56 15.3999 24.53C15.3999 26.5 16.6999 28.11 18.2899 28.11C19.8799 28.11 21.1799 26.5 21.1799 24.53C21.1799 22.56 19.8799 20.95 18.2899 20.95ZM18.2899 27.01C17.2999 27.01 16.4999 25.9 16.4999 24.53C16.4999 23.16 17.2999 22.05 18.2899 22.05C19.2799 22.05 20.0799 23.16 20.0799 24.53C20.0799 25.9 19.2799 27.01 18.2899 27.01Z" fill="#573344"/>
<path d="M23.9999 45.44C27.4099 45.44 30.1899 43.67 30.1899 41.49C30.1899 39.31 27.4099 37.54 23.9999 37.54C20.5899 37.54 17.8099 39.31 17.8099 41.49C17.8099 43.67 20.5899 45.44 23.9999 45.44ZM28.9599 42.11C28.8699 42.33 28.7299 42.55 28.5399 42.75H19.4599C19.2699 42.55 19.1399 42.33 19.0399 42.11H28.9499H28.9599ZM26.7899 43.86C25.9599 44.17 24.9899 44.33 23.9999 44.33C23.0099 44.33 22.0399 44.16 21.2099 43.86H26.7899ZM18.9899 41.01C19.0599 40.79 19.1799 40.58 19.3399 40.37H28.6499C28.8099 40.58 28.9299 40.79 28.9999 41.01H18.9899ZM20.8599 39.26C21.7499 38.87 22.8699 38.65 23.9899 38.65C25.1099 38.65 26.2299 38.87 27.1199 39.26H20.8499H20.8599Z" fill="#573344"/>
<path d="M40.2399 24.37C39.9999 24.2 39.7299 24.11 39.4299 24.1C39.7799 22.35 40.0299 20.61 40.1699 18.93C40.5599 14.09 39.2999 9.95 36.5199 6.95001C33.5699 3.76 28.9999 1.92001 23.9999 1.92001C22.7699 1.92001 21.6699 2.04001 21.0199 2.15001C20.7599 2.01001 20.5399 1.88001 20.3299 1.75001L20.2799 1.72001C20.1099 1.61001 19.8899 1.66001 19.7799 1.82001L19.4499 2.31001C19.3899 2.39001 19.3699 2.49001 19.3899 2.59001C19.4099 2.69001 19.4699 2.77001 19.5499 2.83001L19.5999 2.86001C20.4699 3.43001 21.4299 3.86001 22.2199 4.04001C23.0399 4.23001 23.4499 4.62001 23.6099 4.83001L23.6399 4.87001C23.7499 5.00001 23.9299 5.05 24.0899 4.97001L24.6199 4.69001C24.7099 4.64001 24.7799 4.55 24.7999 4.45001C24.8299 4.34001 24.7999 4.23001 24.7399 4.15001L24.6999 4.09001C24.5799 3.92001 24.2599 3.54001 23.6999 3.21001C23.8099 3.21001 23.9099 3.21001 23.9899 3.21001C28.6399 3.21001 32.8599 4.89001 35.5599 7.82001C38.1199 10.59 39.2299 14.29 38.8699 18.82C38.7099 20.78 38.3999 22.82 37.9299 24.89L37.8799 25.16C37.8599 25.29 37.8899 25.41 37.9699 25.51C38.0499 25.61 38.1699 25.67 38.2999 25.67H38.6599C38.7499 25.67 38.8399 25.64 38.9199 25.58L38.9699 25.54C39.1699 25.39 39.3899 25.37 39.4799 25.43C39.7099 25.59 39.7599 26.28 39.4299 27.3C39.4299 27.3 38.6799 29.61 38.4499 30.3C38.1399 31.2 37.6199 31.86 37.0299 32.11C37.0499 32.06 37.0699 32.01 37.0899 31.96C37.1299 31.86 37.1299 31.74 37.0899 31.64C37.0499 31.54 36.9599 31.45 36.8499 31.41L36.4399 31.25C36.2199 31.17 35.9799 31.28 35.8899 31.49C34.6699 34.57 33.1999 37.14 31.4199 39.35C31.3599 38.94 31.2999 38.47 31.2199 37.94C31.1399 37.27 30.8699 36.62 30.4199 36.01C33.7099 31.76 36.4199 25.67 35.0999 21.58C33.9499 18 29.4899 15.58 23.9999 15.58C18.5199 15.58 14.0599 18 12.8999 21.58C11.5799 25.67 14.2899 31.76 17.5799 36.01C17.1299 36.62 16.8599 37.27 16.7799 37.93C16.6999 38.48 16.6299 38.97 16.5799 39.4C14.7799 37.18 13.2999 34.59 12.0699 31.48C11.9799 31.26 11.7399 31.16 11.5199 31.24L11.1099 31.4C10.9999 31.44 10.9199 31.52 10.8699 31.63C10.8299 31.73 10.8199 31.85 10.8699 31.96C10.8899 32.01 10.9099 32.06 10.9299 32.11C10.3299 31.86 9.81994 31.22 9.50994 30.3C9.26994 29.6 8.53994 27.32 8.52994 27.3C8.19994 26.29 8.25994 25.6 8.47994 25.44C8.58994 25.36 8.80994 25.41 9.01994 25.57L9.08994 25.61C9.16994 25.66 9.24994 25.68 9.34994 25.67C9.46994 25.67 9.94994 25.61 9.97994 25.6C10.3799 25.5 10.7699 25.16 11.0399 24.67C11.4599 23.93 11.7499 22.86 12.0999 21.61C12.7799 19.16 13.6199 16.11 15.7799 14.75C18.2099 13.22 20.3299 13.49 22.7699 13.8C25.1399 14.1 27.8199 14.45 31.2899 13.26C31.5899 15.17 32.8099 17.65 35.3799 18.99C35.6499 19.13 35.9799 19.02 36.1199 18.75C36.1899 18.62 36.1999 18.47 36.1599 18.33C36.1199 18.19 36.0199 18.07 35.8899 18.01C33.5599 16.79 32.5299 14.53 32.3499 12.82C32.3299 12.65 32.2399 12.5 32.0999 12.41L31.7099 12.16C31.5599 12.07 31.3899 12.05 31.2299 12.11C27.8499 13.34 25.2199 13 22.8999 12.7C20.3599 12.38 17.9599 12.07 15.1899 13.81C12.6699 15.4 11.7599 18.68 11.0299 21.34C10.7099 22.5 10.4299 23.5 10.0799 24.12C10.0299 24.22 9.96994 24.29 9.91994 24.35C9.51994 22.47 9.23994 20.61 9.09994 18.82C8.36994 9.65001 13.8399 5.93001 17.2299 4.52001C17.6399 4.69001 18.0199 4.82001 18.3599 4.90001C19.1799 5.09001 19.5899 5.48001 19.7499 5.69001L19.7799 5.73001C19.8799 5.87001 20.0699 5.91001 20.2399 5.83001L20.7699 5.55001C20.8599 5.50001 20.9299 5.41001 20.9499 5.32001C20.9799 5.22001 20.9499 5.11001 20.8899 5.02001L20.8499 4.96001C20.6299 4.65001 19.9699 3.91001 18.6399 3.60001C17.9999 3.46001 17.2099 3.10001 16.4599 2.61001L16.4099 2.58001C16.2499 2.47001 16.0199 2.51001 15.9099 2.68001L15.5799 3.17001C15.5199 3.25001 15.4999 3.35001 15.5199 3.45001C15.5399 3.55001 15.5999 3.63001 15.6799 3.69001L15.7299 3.72001C15.7299 3.72001 15.7699 3.75001 15.7999 3.76001C10.1699 6.52001 7.25994 12.04 7.80994 18.93C7.93994 20.6 8.18994 22.34 8.54994 24.1C8.25994 24.11 7.97994 24.21 7.73994 24.38C7.27994 24.71 6.60994 25.57 7.30994 27.7C7.30994 27.7 8.04994 29.99 8.28994 30.71C8.98994 32.78 10.3999 33.51 11.4899 33.51C11.5099 33.51 11.5199 33.51 11.5399 33.51C12.8599 36.47 14.4399 38.96 16.3699 41.13C16.3399 41.39 16.3299 41.54 16.3299 41.61C16.3299 44.51 19.7599 46.89 23.9799 46.91H24.0299C28.2499 46.89 31.6799 44.51 31.6799 41.61C31.6799 41.53 31.6599 41.36 31.6299 41.08C33.5299 38.93 35.0999 36.45 36.4099 33.51C36.4299 33.51 36.4399 33.51 36.4599 33.51C37.5499 33.51 38.9599 32.77 39.6599 30.71C39.9199 29.94 40.6399 27.72 40.6399 27.7C41.3399 25.57 40.6699 24.7 40.2099 24.38L40.2399 24.37ZM29.6799 35.17C28.3099 33.96 26.2199 33.23 24.0499 33.22H23.9999C21.8299 33.23 19.7399 33.96 18.3799 35.17C15.3399 31.18 12.8199 25.56 13.9899 21.91C14.9999 18.79 19.0299 16.68 24.0299 16.67C29.0299 16.67 33.0699 18.78 34.0699 21.91C35.2399 25.56 32.7199 31.18 29.6799 35.17ZM17.9099 38.09V38.06C18.1599 35.98 20.8499 34.34 24.0299 34.33C27.2099 34.33 29.8899 35.98 30.1399 38.08C30.5799 41.2 30.5999 41.57 30.5999 41.61C30.5999 43.91 27.6499 45.79 24.0299 45.8C20.4099 45.8 17.4599 43.91 17.4599 41.61C17.4599 41.57 17.4799 41.2 17.9199 38.09H17.9099Z" fill="#573344"/>
<defs>
<linearGradient id="paint0_linear_76_1446" x1="14.9199" y1="40.06" x2="31.5199" y2="40.06" gradientUnits="userSpaceOnUse">
<stop stop-color="#814E5D" stop-opacity="0"/>
<stop offset="1" stop-opacity="0.15"/>
</linearGradient>
<linearGradient id="paint1_linear_76_1446" x1="14.9199" y1="25.95" x2="31.5199" y2="25.95" gradientUnits="userSpaceOnUse">
<stop stop-color="#814E5D" stop-opacity="0"/>
<stop offset="1" stop-opacity="0.15"/>
</linearGradient>
</defs>
</svg>
