<svg width="48" height="48" viewBox="0 0 48 48" fill="none" xmlns="http://www.w3.org/2000/svg">
<path d="M28.1999 41.63L31.4799 35.29C31.4799 35.29 31.5099 35.24 31.5299 35.21C29.9499 31.86 25.8599 27.78 24.0199 27.78C22.1799 27.78 18.0899 31.86 16.5099 35.21C16.5099 35.22 16.5199 35.23 16.5299 35.24C16.5299 35.26 16.5499 35.27 16.5599 35.29L18.1399 38.36L19.8299 41.64C19.9299 41.84 20.0099 42.05 20.0499 42.28C20.0699 42.39 20.0799 42.5 20.0899 42.62C20.0899 42.73 20.0899 42.85 20.0799 42.96C20.4199 43.17 20.7599 43.34 21.0899 43.47C21.4299 43.6 21.7599 43.69 22.0899 43.76C22.4199 43.83 22.7399 43.87 23.0699 43.89C23.3999 43.91 23.7099 43.92 24.0199 43.92C24.6399 43.92 25.2899 43.89 25.9499 43.75C26.2799 43.68 26.6099 43.59 26.9499 43.46C27.2899 43.33 27.6299 43.16 27.9699 42.95C27.9499 42.72 27.9599 42.5 27.9999 42.28C28.0199 42.17 28.0499 42.06 28.0899 41.96C28.1299 41.86 28.1699 41.75 28.2199 41.65L28.1999 41.63ZM23.9399 41.21C22.5499 41.21 21.2999 40.58 20.4699 39.59C20.4399 39.55 20.4099 39.51 20.3799 39.47C20.1799 39.22 20.0099 38.94 19.8699 38.64C19.5799 38.04 19.4099 37.38 19.4099 36.67C19.4099 35.73 19.6999 34.86 20.1799 34.14C20.4199 33.78 20.7199 33.45 21.0599 33.18C21.3999 32.9 21.7699 32.67 22.1799 32.5C22.4499 32.39 22.7299 32.3 23.0299 32.24C23.3199 32.18 23.6299 32.15 23.9399 32.15C24.5599 32.15 25.1599 32.28 25.6999 32.51C26.1099 32.68 26.4799 32.91 26.8199 33.19C27.0399 33.37 27.2499 33.58 27.4299 33.8C27.5199 33.91 27.6099 34.03 27.6899 34.15C28.1799 34.87 28.4599 35.74 28.4599 36.68C28.4599 39.18 26.4299 41.21 23.9299 41.21H23.9399Z" fill="url(#paint0_linear_76_1445)"/>
<path d="M23.9399 33.03C21.9299 33.03 20.2899 34.67 20.2899 36.68C20.2899 38.69 21.9299 40.33 23.9399 40.33C25.9499 40.33 27.5899 38.69 27.5899 36.68C27.5899 34.67 25.9499 33.03 23.9399 33.03ZM23.9399 39.66C22.2999 39.66 20.9599 38.32 20.9599 36.68C20.9599 35.04 22.2999 33.7 23.9399 33.7C25.5799 33.7 26.9199 35.04 26.9199 36.68C26.9199 38.32 25.5799 39.66 23.9399 39.66Z" fill="black" fill-opacity="0.25"/>
<path d="M15.0443 34.5149L10.3795 36.9236L14.9125 45.7023L19.5773 43.2936L15.0443 34.5149Z" fill="url(#paint1_linear_76_1445)"/>
<path d="M32.9882 34.5161L28.4568 43.2957L33.122 45.7036L37.6535 36.924L32.9882 34.5161Z" fill="url(#paint2_linear_76_1445)"/>
<path d="M23.94 33.59C22.24 33.59 20.85 34.98 20.85 36.68C20.85 38.38 22.24 39.77 23.94 39.77C25.64 39.77 27.03 38.38 27.03 36.68C27.03 34.98 25.64 33.59 23.94 33.59ZM25.93 36.68C25.93 37.78 25.04 38.67 23.94 38.67C22.84 38.67 21.95 37.78 21.95 36.68C21.95 35.58 22.84 34.69 23.94 34.69C25.04 34.69 25.93 35.58 25.93 36.68Z" fill="#543B63"/>
<path d="M23.9399 32.03C21.3799 32.03 19.2999 34.11 19.2999 36.67C19.2999 39.23 21.3799 41.31 23.9399 41.31C26.4999 41.31 28.5799 39.23 28.5799 36.67C28.5799 34.11 26.4999 32.03 23.9399 32.03ZM27.4799 36.67C27.4799 38.62 25.8899 40.21 23.9399 40.21C21.9899 40.21 20.3999 38.62 20.3999 36.67C20.3999 34.72 21.9899 33.13 23.9399 33.13C25.8899 33.13 27.4799 34.72 27.4799 36.67Z" fill="#543B63"/>
<path d="M32.24 21.72C32.24 21.42 31.99 21.17 31.69 21.17H27.29C26.99 21.17 26.74 21.42 26.74 21.72C26.74 22.02 26.99 22.27 27.29 22.27H31.69C31.99 22.27 32.24 22.02 32.24 21.72Z" fill="#543B63"/>
<path d="M27.7799 24.64C27.7799 25.26 28.5299 25.75 29.4899 25.75C30.4499 25.75 31.1999 25.25 31.1999 24.64C31.1999 24.03 30.4299 23.53 29.4899 23.53C28.5499 23.53 27.7799 24.03 27.7799 24.64Z" fill="#543B63"/>
<path d="M21.24 21.72C21.24 21.42 20.99 21.17 20.69 21.17H16.29C15.99 21.17 15.74 21.42 15.74 21.72C15.74 22.02 15.99 22.27 16.29 22.27H20.69C20.99 22.27 21.24 22.02 21.24 21.72Z" fill="#543B63"/>
<path d="M16.7799 24.64C16.7799 25.26 17.5299 25.75 18.4899 25.75C19.4499 25.75 20.1999 25.25 20.1999 24.64C20.1999 24.03 19.4299 23.53 18.4899 23.53C17.5499 23.53 16.7799 24.03 16.7799 24.64Z" fill="#543B63"/>
<path d="M40.2399 24.37C40.0099 24.2 39.7199 24.11 39.4299 24.09C39.7799 22.34 40.0299 20.6 40.1599 18.92C40.5499 14.08 39.2899 9.93999 36.5099 6.94C33.5599 3.74 28.9899 1.91 23.9899 1.91C22.7599 1.91 21.6499 2.03 21.0099 2.14C20.7499 2 20.5299 1.87 20.3199 1.74L20.2699 1.71C20.0999 1.6 19.8799 1.65 19.7699 1.81L19.4399 2.3C19.3799 2.38 19.3599 2.48 19.3799 2.58C19.3999 2.68 19.4599 2.76 19.5399 2.82L19.5899 2.85C20.4599 3.42 21.4199 3.85 22.2099 4.03C23.0299 4.21 23.4399 4.61 23.5999 4.82L23.6299 4.86C23.7399 5 23.9299 5.04 24.0799 4.96L24.6099 4.68C24.6999 4.63 24.7699 4.54 24.7899 4.44C24.8199 4.34 24.7899 4.23 24.7299 4.14L24.6899 4.08C24.5699 3.91 24.2499 3.53 23.6899 3.2C23.7999 3.2 23.8999 3.2 23.9799 3.2C28.6299 3.2 32.8499 4.88 35.5499 7.81C38.1099 10.58 39.2199 14.28 38.8599 18.81C38.6999 20.76 38.3899 22.81 37.9199 24.88L37.8699 25.15C37.8499 25.28 37.8799 25.4 37.9599 25.5C38.0399 25.6 38.1599 25.66 38.2899 25.66H38.6499C38.7399 25.66 38.8299 25.63 38.9099 25.57L38.9699 25.53C39.1699 25.38 39.3899 25.35 39.4799 25.42C39.7099 25.58 39.7599 26.27 39.4299 27.29C39.4299 27.31 38.6999 29.56 38.4499 30.29C38.1399 31.19 37.6199 31.85 37.0299 32.1C37.0499 32.05 37.0699 32 37.0899 31.95C37.1299 31.84 37.1299 31.73 37.0899 31.63C37.0499 31.53 36.9599 31.44 36.8499 31.4L36.4399 31.24C36.2199 31.16 35.9799 31.27 35.8899 31.48C35.5299 32.39 35.1299 33.27 34.6899 34.17C34.0999 33.86 33.4299 33.81 32.7999 34.01C32.5899 34.08 32.3899 34.17 32.1899 34.3C30.3799 30.86 26.3599 26.76 23.9899 26.76C21.6199 26.76 17.6099 30.88 15.7899 34.3C15.5999 34.18 15.3999 34.08 15.1799 34.01C14.5499 33.81 13.8799 33.87 13.2899 34.17H13.2799C12.8299 33.28 12.4399 32.4 12.0799 31.48C11.9899 31.26 11.7599 31.15 11.5299 31.24L11.1199 31.4C11.0199 31.44 10.9299 31.52 10.8899 31.63C10.8399 31.73 10.8399 31.85 10.8899 31.96C10.9099 32.01 10.9299 32.06 10.9499 32.1C10.3499 31.85 9.83994 31.21 9.52994 30.29C9.28994 29.59 8.55994 27.31 8.54994 27.29C8.21994 26.28 8.27994 25.59 8.49994 25.43C8.60994 25.35 8.82994 25.41 9.03994 25.56L9.10994 25.6C9.18994 25.65 9.26994 25.67 9.36994 25.66C9.49994 25.66 9.96994 25.6 9.99994 25.59C10.3999 25.49 10.7799 25.15 11.0599 24.66C11.4799 23.92 11.7699 22.85 12.1199 21.6C12.7999 19.15 13.6399 16.1 15.7999 14.74C18.2299 13.21 20.3399 13.48 22.7899 13.79C25.1599 14.09 27.8299 14.44 31.3099 13.25C31.6099 15.16 32.8299 17.64 35.3999 18.98C35.6699 19.12 35.9999 19.01 36.1399 18.74C36.2099 18.61 36.2199 18.46 36.1799 18.32C36.1399 18.18 36.0399 18.07 35.9099 18C33.5799 16.78 32.5499 14.52 32.3699 12.82C32.3499 12.65 32.2599 12.5 32.1199 12.41L31.7299 12.16C31.5799 12.07 31.4099 12.05 31.2499 12.11C27.8699 13.33 25.2399 12.99 22.9199 12.7C20.3799 12.38 17.9799 12.07 15.2099 13.81C12.6899 15.4 11.7799 18.68 11.0499 21.33C10.7299 22.49 10.4499 23.5 10.0999 24.13C10.0499 24.23 9.98994 24.3 9.93994 24.36C9.52994 22.48 9.25994 20.62 9.10994 18.83C8.37994 9.66 13.8599 5.94 17.2399 4.53C17.6499 4.7 18.0299 4.83 18.3699 4.91C19.1899 5.1 19.5999 5.49 19.7599 5.7L19.7899 5.74C19.8999 5.87999 20.0799 5.92 20.2499 5.84L20.7799 5.56C20.8699 5.51 20.9399 5.43 20.9699 5.32C20.9999 5.22 20.9699 5.11 20.9099 5.02L20.8699 4.96C20.6499 4.65 19.9899 3.91 18.6599 3.61C18.0199 3.47 17.2299 3.11 16.4799 2.62L16.4299 2.59C16.2699 2.48 16.0399 2.52 15.9299 2.69L15.5999 3.18C15.5399 3.26 15.5199 3.36 15.5399 3.46C15.5599 3.56 15.6199 3.64 15.6999 3.7L15.7499 3.73C15.7499 3.73 15.7899 3.76 15.8099 3.77C10.1799 6.53 7.26994 12.05 7.81994 18.94C7.94994 20.61 8.19994 22.35 8.54994 24.11C8.25994 24.12 7.97994 24.22 7.73994 24.39C7.27994 24.72 6.60994 25.58 7.30994 27.71C7.30994 27.73 8.02994 29.95 8.28994 30.72C8.98994 32.79 10.3999 33.52 11.4899 33.52C11.5099 33.52 11.5199 33.52 11.5399 33.52C11.6999 33.88 11.8699 34.24 12.0499 34.61L9.68994 35.82C9.08994 36.13 8.85994 36.87 9.16994 37.47L13.7699 46.37C13.9799 46.78 14.3999 47.03 14.8599 47.03C15.0599 47.03 15.2399 46.98 15.4199 46.89L18.9299 45.08C19.3199 44.88 19.6499 44.58 19.8999 44.22C21.3499 44.98 22.7199 45.09 23.9799 45.09C25.2399 45.09 26.6199 44.98 28.0799 44.22C28.3299 44.58 28.6599 44.88 29.0599 45.08L32.5699 46.89C32.7399 46.98 32.9399 47.03 33.1299 47.03C33.5899 47.03 34.0099 46.78 34.2199 46.37L38.8199 37.47C38.9699 37.18 38.9999 36.85 38.8999 36.54C38.7999 36.23 38.5899 35.97 38.2999 35.82L35.9299 34.6C36.1099 34.23 36.2799 33.87 36.4399 33.51C36.4599 33.51 36.4699 33.51 36.4899 33.51C37.5799 33.51 38.9899 32.77 39.6899 30.71C39.9499 29.95 40.6699 27.72 40.6699 27.7C41.3699 25.57 40.6999 24.7 40.2399 24.38V24.37ZM32.3099 45.29L36.8399 36.51L37.6399 36.92L33.1099 45.7L32.3099 45.28V45.29ZM35.8599 36.01L31.3299 44.79L29.6699 43.93C28.9999 43.58 28.7399 42.76 29.0799 42.09L32.3599 35.75C32.5299 35.43 32.8099 35.19 33.1599 35.07C33.2899 35.03 33.4399 35.01 33.5799 35.01C33.7999 35.01 34.0099 35.06 34.2099 35.16L35.8699 36.02L35.8599 36.01ZM31.3899 35.21L28.0899 41.58C27.8799 41.98 27.7899 42.42 27.8199 42.88C26.4999 43.68 25.1999 43.8 23.9899 43.8C22.7799 43.8 21.4899 43.69 20.1699 42.89C20.1999 42.43 20.1099 41.98 19.9099 41.58L16.6299 35.24C16.6299 35.24 16.6199 35.22 16.6099 35.2C18.1899 31.91 22.2399 27.89 23.9899 27.89C25.7399 27.89 29.7899 31.91 31.3799 35.21H31.3899ZM14.8599 35.07C15.2099 35.18 15.4899 35.42 15.6599 35.75L18.9299 42.09C19.0999 42.41 19.1299 42.78 19.0199 43.13C18.9099 43.48 18.6699 43.76 18.3499 43.93L16.6899 44.79L12.1599 36.01L13.8199 35.15C14.1399 34.99 14.5199 34.95 14.8599 35.06V35.07ZM14.8999 45.71L10.3699 36.93L11.1699 36.52L15.6999 45.3L14.8999 45.71Z" fill="#543B63"/>
<defs>
<linearGradient id="paint0_linear_76_1445" x1="19.9199" y1="32.26" x2="27.2199" y2="40.05" gradientUnits="userSpaceOnUse">
<stop stop-color="#A97ABC" stop-opacity="0"/>
<stop offset="1" stop-opacity="0.2"/>
</linearGradient>
<linearGradient id="paint1_linear_76_1445" x1="12.6817" y1="35.6393" x2="17.1817" y2="44.4293" gradientUnits="userSpaceOnUse">
<stop offset="0.27" stop-color="#A97ABC" stop-opacity="0"/>
<stop offset="1" stop-opacity="0.2"/>
</linearGradient>
<linearGradient id="paint2_linear_76_1445" x1="35.3535" y1="35.6347" x2="30.8535" y2="44.4247" gradientUnits="userSpaceOnUse">
<stop offset="0.27" stop-color="#A97ABC" stop-opacity="0"/>
<stop offset="1" stop-opacity="0.2"/>
</linearGradient>
</defs>
</svg>
