<svg width="48" height="48" viewBox="0 0 48 48" fill="none" xmlns="http://www.w3.org/2000/svg">
<path d="M32.99 32.51C32.04 31.96 31.18 31.42 30.36 30.89C28 29.38 26.14 28.19 24 28.19V43.9C25.86 43.9 27.43 43.59 29.04 42.1C31.63 39.69 33.61 36.88 35.27 33.25C34.74 33.22 34.02 33.1 33 32.52L32.99 32.51Z" fill="url(#paint0_linear_76_1444)"/>
<path d="M32.24 21.72C32.24 21.42 31.99 21.17 31.69 21.17H27.29C26.99 21.17 26.74 21.42 26.74 21.72C26.74 22.02 26.99 22.27 27.29 22.27H31.69C31.99 22.27 32.24 22.02 32.24 21.72Z" fill="#942431"/>
<path d="M27.7799 24.64C27.7799 25.26 28.5299 25.75 29.4899 25.75C30.4499 25.75 31.1999 25.25 31.1999 24.64C31.1999 24.03 30.4299 23.53 29.4899 23.53C28.5499 23.53 27.7799 24.03 27.7799 24.64Z" fill="#942431"/>
<path d="M21.24 21.72C21.24 21.42 20.99 21.17 20.69 21.17H16.29C15.99 21.17 15.74 21.42 15.74 21.72C15.74 22.02 15.99 22.27 16.29 22.27H20.69C20.99 22.27 21.24 22.02 21.24 21.72Z" fill="#942431"/>
<path d="M16.7799 24.64C16.7799 25.26 17.5299 25.75 18.4899 25.75C19.4499 25.75 20.1999 25.25 20.1999 24.64C20.1999 24.03 19.4299 23.53 18.4899 23.53C17.5499 23.53 16.7799 24.03 16.7799 24.64Z" fill="#942431"/>
<path d="M40.24 24.37C40.01 24.21 39.7299 24.11 39.43 24.09C39.7799 22.35 40.0299 20.61 40.1699 18.92C40.5599 14.08 39.2999 9.93999 36.5199 6.94C33.5699 3.75 28.9999 1.91 23.9999 1.91C22.7699 1.91 21.66 2.03 21.0199 2.14C20.7599 2 20.5399 1.87 20.3299 1.74L20.28 1.71C20.12 1.6 19.8899 1.65 19.78 1.81L19.45 2.3C19.3899 2.38 19.3699 2.48 19.3899 2.58C19.4099 2.68 19.4699 2.76 19.5499 2.82L19.5999 2.85C20.4699 3.42 21.4299 3.85 22.2199 4.03C23.0399 4.22 23.4499 4.61 23.6099 4.82L23.6399 4.86C23.7499 5 23.9299 5.04 24.0899 4.96L24.6199 4.68C24.7099 4.63 24.7799 4.54 24.7999 4.44C24.8199 4.34 24.7999 4.23 24.7399 4.14L24.6999 4.08C24.5799 3.91 24.2599 3.53 23.6899 3.2C23.7999 3.2 23.8999 3.2 23.9799 3.2C28.6299 3.2 32.8499 4.88 35.5499 7.81C38.1099 10.58 39.2199 14.28 38.8599 18.81C38.6999 20.82 38.3799 22.86 37.9199 24.87C37.4599 26.86 36.4 30.02 35.4499 32.25C34.8799 32.25 34.3199 32.14 33.4599 31.64C32.5299 31.1 31.6999 30.57 30.8899 30.06L30.8599 30.04C28.4699 28.51 26.3999 27.19 23.9699 27.19C21.5499 27.19 19.4799 28.51 17.0899 30.04C16.2799 30.56 15.4399 31.09 14.4899 31.64C13.6299 32.13 13.0699 32.24 12.4999 32.25C11.6599 30.29 10.7399 27.61 10.1799 25.51C10.4999 25.36 10.7999 25.06 11.0299 24.66C11.4499 23.91 11.7499 22.84 12.0899 21.6C12.7699 19.15 13.61 16.1 15.7699 14.74C18.2 13.2 20.32 13.48 22.7599 13.79C25.1299 14.09 27.7999 14.44 31.2799 13.25C31.5799 15.16 32.7999 17.64 35.3699 18.98C35.6399 19.12 35.9699 19.01 36.1099 18.74C36.1799 18.61 36.19 18.46 36.15 18.32C36.1099 18.18 36.0099 18.07 35.8799 18C33.5499 16.78 32.5199 14.52 32.3399 12.82C32.3199 12.65 32.2299 12.5 32.0899 12.41L31.6999 12.16C31.5499 12.07 31.3799 12.05 31.2199 12.11C27.8399 13.33 25.2099 13 22.8899 12.69C20.3499 12.37 17.9499 12.06 15.1899 13.8C12.6699 15.39 11.7599 18.67 11.0299 21.32C10.7099 22.48 10.4299 23.49 10.0799 24.11C10.0299 24.21 9.96995 24.28 9.91995 24.34C9.51995 22.46 9.23995 20.6 9.09995 18.81C8.36995 9.64 13.8499 5.92 17.2299 4.51C17.6299 4.68 18.0099 4.81 18.36 4.89C19.1799 5.08 19.5899 5.47 19.7599 5.69L19.79 5.73C19.89 5.87 20.0899 5.91 20.2499 5.83L20.78 5.55C20.87 5.5 20.9399 5.41 20.9599 5.31C20.9899 5.2 20.9599 5.09 20.8999 5.01L20.86 4.95C20.6399 4.64 19.9899 3.9 18.6499 3.59C18.0099 3.45 17.2199 3.08 16.4699 2.6L16.4199 2.57C16.2599 2.46 16.0299 2.5 15.9199 2.67L15.5899 3.16C15.5299 3.24 15.5099 3.34 15.5299 3.44C15.5499 3.54 15.6099 3.62 15.6899 3.68L15.7399 3.71C15.7399 3.71 15.78 3.74 15.8099 3.75C10.1799 6.51 7.26995 12.03 7.81995 18.92C7.94995 20.59 8.19995 22.33 8.55995 24.09C8.26995 24.11 7.97995 24.2 7.74995 24.36C7.28995 24.69 6.61995 25.55 7.31995 27.68C7.31995 27.7 8.03995 29.92 8.30995 30.69C9.00995 32.76 10.4199 33.49 11.5099 33.49C11.5299 33.49 11.5399 33.49 11.5599 33.49C13.2999 37.37 15.3999 40.38 18.1599 42.95C20.1599 44.81 22.1499 45.07 23.9999 45.07C25.8499 45.07 27.8399 44.81 29.8399 42.95C32.6099 40.38 34.7099 37.37 36.4399 33.49C36.4599 33.49 36.4699 33.49 36.49 33.49C37.58 33.49 38.9899 32.75 39.6899 30.69C39.9499 29.93 40.6699 27.7 40.6699 27.68C41.3699 25.55 40.7 24.68 40.24 24.36V24.37ZM39.45 27.29L39.07 28.45C38.9 28.98 38.6999 29.58 38.4699 30.28C38.01 31.65 37.2599 32.04 36.8399 32.16C36.7999 32.17 36.7499 32.18 36.6899 32.19L36.8899 31.7C37.6699 29.73 38.43 27.45 38.9 25.62C38.9 25.62 38.91 25.58 38.99 25.52C39.0999 25.43 39.24 25.38 39.36 25.38C39.42 25.38 39.46 25.39 39.49 25.41C39.72 25.57 39.77 26.26 39.4399 27.27L39.45 27.29ZM35.0899 33.35C33.4599 36.89 31.5099 39.65 28.9599 42.02C27.3799 43.49 25.8299 43.79 23.9999 43.79C22.1699 43.79 20.62 43.49 19.04 42.02C16.49 39.65 14.5399 36.89 12.9099 33.35C13.3899 33.31 14.1099 33.17 15.0699 32.61C16.0199 32.06 16.8899 31.51 17.6699 31.01L17.7199 30.98C20.0599 29.49 21.9099 28.31 24.0099 28.31C26.1099 28.31 27.9599 29.49 30.2999 30.99C31.1299 31.52 31.9799 32.06 32.9399 32.61C33.8999 33.16 34.6199 33.31 35.0999 33.35H35.0899ZM8.50995 25.43C8.60995 25.36 8.84995 25.41 9.00995 25.54C9.07995 25.59 9.09995 25.63 9.09995 25.63C9.57995 27.47 10.3299 29.74 11.1099 31.72L11.3099 32.2C11.2599 32.2 11.2099 32.18 11.1699 32.17H11.1399C10.7399 32.05 9.99995 31.66 9.52995 30.29C9.28995 29.59 9.09995 28.99 8.92995 28.46L8.54995 27.3C8.21995 26.29 8.27995 25.59 8.49995 25.43H8.50995Z" fill="#942431"/>
<defs>
<linearGradient id="paint0_linear_76_1444" x1="30.33" y1="40.27" x2="25.67" y2="28.96" gradientUnits="userSpaceOnUse">
<stop stop-opacity="0"/>
<stop offset="1" stop-opacity="0.13"/>
</linearGradient>
</defs>
</svg>
