<svg width="48" height="48" viewBox="0 0 48 48" fill="none" xmlns="http://www.w3.org/2000/svg">
<path d="M22.53 30.98C23.06 31.13 23.55 31.21 24.03 31.21C24.51 31.21 25 31.14 25.53 30.98C25.67 30.94 25.79 30.85 25.86 30.72C25.93 30.59 25.95 30.44 25.91 30.3C25.87 30.16 25.77 30.04 25.64 29.97C25.51 29.9 25.36 29.88 25.22 29.93C24.36 30.18 23.7 30.18 22.84 29.93C22.7 29.89 22.55 29.9 22.42 29.97C22.29 30.04 22.19 30.16 22.15 30.3C22.11 30.44 22.13 30.59 22.2 30.72C22.27 30.85 22.39 30.94 22.53 30.98Z" fill="#607631"/>
<path d="M40.24 24.37C40 24.2 39.73 24.11 39.43 24.09C39.78 22.34 40.03 20.6 40.17 18.92C40.56 14.08 39.3 9.94002 36.52 6.94002C33.57 3.75002 29 1.91002 24 1.91002C22.77 1.91002 21.66 2.03002 21.02 2.14002C20.75 2.00002 20.53 1.87002 20.33 1.74002L20.28 1.71002C20.12 1.60002 19.89 1.64002 19.78 1.81002L19.45 2.30002C19.39 2.38002 19.37 2.48002 19.39 2.58002C19.41 2.68002 19.47 2.76002 19.55 2.81002L19.6 2.84002C20.47 3.41002 21.43 3.84002 22.22 4.02002C23.04 4.20002 23.45 4.60002 23.61 4.81002L23.64 4.85002C23.75 4.99002 23.93 5.03002 24.1 4.95002L24.63 4.67002C24.72 4.62002 24.79 4.53002 24.81 4.43002C24.83 4.33002 24.81 4.22002 24.75 4.13002L24.71 4.07002C24.59 3.90002 24.27 3.52002 23.71 3.19002C23.82 3.19002 23.92 3.19002 24 3.19002C28.65 3.19002 32.87 4.87002 35.57 7.80002C38.13 10.57 39.24 14.27 38.88 18.8C38.72 20.76 38.41 22.8 37.94 24.87L37.89 25.14C37.87 25.27 37.9 25.39 37.98 25.49C38.06 25.59 38.18 25.65 38.31 25.65H38.67C38.76 25.65 38.85 25.62 38.93 25.56L38.99 25.52C39.19 25.37 39.41 25.35 39.5 25.41C39.73 25.57 39.78 26.26 39.45 27.28L39.09 28.39C38.9 28.97 38.71 29.56 38.47 30.27C38.16 31.17 37.64 31.83 37.05 32.08C37.07 32.03 37.09 31.98 37.11 31.93C37.15 31.83 37.15 31.71 37.11 31.61C37.07 31.51 36.98 31.42 36.87 31.38L36.46 31.22C36.24 31.14 36 31.25 35.91 31.46C34.14 35.89 31.94 39.24 28.97 42C27.39 43.47 25.84 43.77 24.01 43.77C22.18 43.77 20.63 43.47 19.05 42C16.08 39.24 13.87 35.89 12.11 31.46C12.02 31.25 11.78 31.14 11.56 31.22L11.15 31.38C11.05 31.42 10.96 31.5 10.92 31.61C10.88 31.71 10.87 31.83 10.92 31.94C10.94 31.99 10.96 32.04 10.98 32.08C10.38 31.83 9.87 31.19 9.56 30.27C9.32 29.55 9.11 28.92 8.95 28.42L8.58 27.27C8.25 26.26 8.31 25.57 8.53 25.41C8.64 25.33 8.86 25.39 9.07 25.54L9.14 25.58C9.22 25.63 9.32 25.65 9.4 25.64C9.47 25.64 9.59 25.62 9.71 25.61C9.96 25.58 10.01 25.58 10.03 25.57C10.43 25.47 10.81 25.13 11.09 24.64C11.51 23.89 11.81 22.82 12.15 21.58C12.83 19.13 13.67 16.08 15.83 14.72C18.26 13.19 20.37 13.46 22.82 13.77C25.19 14.08 27.87 14.42 31.34 13.23C31.64 15.14 32.86 17.62 35.43 18.96C35.7 19.09 36.03 18.99 36.17 18.72C36.24 18.59 36.25 18.44 36.21 18.3C36.17 18.16 36.07 18.05 35.94 17.98C33.61 16.76 32.58 14.5 32.4 12.8C32.38 12.63 32.29 12.48 32.15 12.39L31.76 12.14C31.61 12.05 31.44 12.03 31.28 12.09C27.9 13.32 25.27 12.97 22.96 12.68C20.42 12.36 18.02 12.05 15.25 13.79C12.73 15.38 11.82 18.66 11.09 21.31C10.77 22.47 10.49 23.48 10.14 24.1C10.09 24.2 10.03 24.27 9.98 24.33C9.58 22.45 9.3 20.59 9.16 18.8C8.43 9.63002 13.9 5.91002 17.29 4.50002C17.69 4.67002 18.07 4.80002 18.42 4.88002C19.24 5.06002 19.65 5.46002 19.81 5.67002L19.84 5.71002C19.94 5.85002 20.14 5.89002 20.3 5.81002L20.83 5.53002C20.92 5.48002 20.99 5.39002 21.01 5.29002C21.03 5.19002 21.01 5.08002 20.95 4.99002L20.91 4.93002C20.69 4.62002 20.03 3.88002 18.7 3.58002C18.06 3.44002 17.27 3.07002 16.52 2.59002L16.47 2.56002C16.3 2.45002 16.08 2.49002 15.97 2.66002L15.64 3.15002C15.58 3.23002 15.56 3.33002 15.58 3.43002C15.6 3.53002 15.66 3.61002 15.74 3.66002L15.79 3.69002C15.79 3.69002 15.83 3.72002 15.86 3.73002C10.23 6.49002 7.32 12.01 7.87 18.9C8 20.57 8.25 22.31 8.61 24.07C8.31 24.08 8.04 24.18 7.8 24.34C7.34 24.67 6.67 25.53 7.37 27.66L7.72 28.75C7.91 29.34 8.11 29.95 8.35 30.67C9.05 32.74 10.46 33.47 11.55 33.47C11.57 33.47 11.58 33.47 11.6 33.47C13.33 37.35 15.43 40.36 18.2 42.93C20.2 44.79 22.19 45.05 24.04 45.05C25.89 45.05 27.88 44.79 29.88 42.93C32.65 40.36 34.75 37.35 36.48 33.47C36.5 33.47 36.51 33.47 36.53 33.47C37.62 33.47 39.03 32.73 39.73 30.67C39.99 29.89 40.21 29.24 40.38 28.69L40.71 27.67C41.41 25.54 40.74 24.67 40.28 24.35L40.24 24.37Z" fill="#607631"/>
<path d="M31.2 24.64C31.2 24.03 30.43 23.53 29.49 23.53C28.55 23.53 27.78 24.03 27.78 24.64C27.78 25.25 28.53 25.75 29.49 25.75C30.45 25.75 31.2 25.25 31.2 24.64Z" fill="#607631"/>
<path d="M18.49 25.75C19.43 25.75 20.2 25.25 20.2 24.64C20.2 24.03 19.43 23.53 18.49 23.53C17.55 23.53 16.78 24.03 16.78 24.64C16.78 25.25 17.53 25.75 18.49 25.75Z" fill="#607631"/>
<path d="M24 39.14C26.62 39.14 28.11 37.18 28.64 35.35C28.69 35.19 28.66 35 28.55 34.86C28.45 34.72 28.28 34.64 28.11 34.64H19.9C19.73 34.64 19.56 34.72 19.46 34.86C19.36 35 19.32 35.18 19.37 35.34C19.89 37.17 21.38 39.13 24.01 39.13L24 39.14ZM20.69 35.75H27.32C26.9 36.67 25.95 38.03 24.01 38.03C22.07 38.03 21.11 36.67 20.7 35.75H20.69Z" fill="#607631"/>
<path d="M32.1099 22.31C32.1699 22.17 32.1599 22.02 32.1099 21.89C32.0499 21.75 31.9499 21.65 31.8099 21.59C31.2999 21.38 30.4899 21.14 29.5099 21.14C28.5299 21.14 27.7099 21.39 27.1899 21.6C26.9099 21.72 26.7699 22.04 26.8899 22.32C26.9699 22.53 27.1799 22.67 27.3999 22.67C27.4699 22.67 27.5499 22.66 27.6099 22.63C28.0299 22.46 28.7099 22.26 29.5099 22.26C30.3099 22.26 30.9799 22.46 31.3999 22.63C31.6799 22.74 31.9999 22.6 32.1199 22.32L32.1099 22.31Z" fill="#607631"/>
<path d="M20.38 22.62C20.45 22.65 20.52 22.66 20.59 22.66C20.82 22.66 21.02 22.52 21.1 22.31C21.16 22.17 21.15 22.02 21.1 21.89C21.04 21.75 20.94 21.65 20.8 21.59C20.29 21.38 19.47 21.13 18.49 21.13C17.51 21.13 16.69 21.38 16.18 21.58C16.04 21.64 15.94 21.74 15.88 21.88C15.82 22.02 15.82 22.17 15.88 22.3C15.99 22.58 16.31 22.72 16.6 22.61C17.02 22.44 17.69 22.24 18.49 22.24C19.29 22.24 19.97 22.44 20.39 22.61L20.38 22.62Z" fill="#607631"/>
</svg>
