<svg width="20" height="20" viewBox="0 0 20 20" fill="none" xmlns="http://www.w3.org/2000/svg">
    <path fill-rule="evenodd" clip-rule="evenodd"
        d="M20 10C20 15.5228 15.5228 20 10 20C4.47715 20 0 15.5228 0 10C0 4.47715 4.47715 0 10 0C15.5228 0 20 4.47715 20 10ZM6.52979 7.75C7.35821 7.75 8.02979 7.07843 8.02979 6.25C8.02979 5.42157 7.35821 4.75 6.52979 4.75C5.70136 4.75 5.02979 5.42157 5.02979 6.25C5.02979 7.07843 5.70136 7.75 6.52979 7.75ZM15.0298 6.25C15.0298 7.07843 14.3582 7.75 13.5298 7.75C12.7014 7.75 12.0298 7.07843 12.0298 6.25C12.0298 5.42157 12.7014 4.75 13.5298 4.75C14.3582 4.75 15.0298 5.42157 15.0298 6.25ZM5.52979 14.8C5.52979 15.3 5.92978 15.7 6.42978 15.7L13.6298 15.7C14.1298 15.7 14.5298 15.3 14.5298 14.8C14.5298 12.31 12.5198 10.3 10.0298 10.3C7.53979 10.3 5.52979 12.31 5.52979 14.8Z"
        fill="#111827" />
</svg>