<svg width="20" height="20" viewBox="0 0 20 20" fill="none" xmlns="http://www.w3.org/2000/svg">
<path fill-rule="evenodd" clip-rule="evenodd" d="M20 10C20 15.5228 15.5228 20 10 20C4.47715 20 0 15.5228 0 10C0 4.47715 4.47715 0 10 0C15.5228 0 20 4.47715 20 10ZM6.52979 7.75C7.35821 7.75 8.02979 7.07843 8.02979 6.25C8.02979 5.42157 7.35821 4.75 6.52979 4.75C5.70136 4.75 5.02979 5.42157 5.02979 6.25C5.02979 7.07843 5.70136 7.75 6.52979 7.75ZM15.0298 6.25C15.0298 7.07843 14.3582 7.75 13.5298 7.75C12.7014 7.75 12.0298 7.07843 12.0298 6.25C12.0298 5.42157 12.7014 4.75 13.5298 4.75C14.3582 4.75 15.0298 5.42157 15.0298 6.25ZM5 15C5 15.5 5.92978 15.7 6.42978 15.7L13.6298 15.7C14.1298 15.7 15 15.5 15 15C15 12.51 12.5 13 10 13C7.42322 13 5 12.51 5 15Z" fill="#111827"/>
</svg>